<?xml version="1.0" encoding="UTF-8" standalone="no"?>
<!-- Created with Inkscape (http://www.inkscape.org/) -->
<svg
   xmlns:dc="http://purl.org/dc/elements/1.1/"
   xmlns:cc="http://creativecommons.org/ns#"
   xmlns:rdf="http://www.w3.org/1999/02/22-rdf-syntax-ns#"
   xmlns:svg="http://www.w3.org/2000/svg"
   xmlns="http://www.w3.org/2000/svg"
   xmlns:sodipodi="http://sodipodi.sourceforge.net/DTD/sodipodi-0.dtd"
   xmlns:inkscape="http://www.inkscape.org/namespaces/inkscape"
   width="257.62601"
   height="307.88101"
   id="svg3347"
   sodipodi:version="0.32"
   inkscape:version="0.46"
   version="1.0"
   sodipodi:docname="Erasmus logo.svg"
   inkscape:output_extension="org.inkscape.output.svg.inkscape">
  <defs
     id="defs3349">
    <inkscape:perspective
       sodipodi:type="inkscape:persp3d"
       inkscape:vp_x="0 : 526.18109 : 1"
       inkscape:vp_y="0 : 1000 : 0"
       inkscape:vp_z="744.09448 : 526.18109 : 1"
       inkscape:persp3d-origin="372.04724 : 350.78739 : 1"
       id="perspective3355" />
    <inkscape:perspective
       id="perspective3443"
       inkscape:persp3d-origin="372.04724 : 350.78739 : 1"
       inkscape:vp_z="744.09448 : 526.18109 : 1"
       inkscape:vp_y="0 : 1000 : 0"
       inkscape:vp_x="0 : 526.18109 : 1"
       sodipodi:type="inkscape:persp3d" />
  </defs>
  <sodipodi:namedview
     id="base"
     pagecolor="#ffffff"
     bordercolor="#666666"
     borderopacity="1.0"
     gridtolerance="10000"
     guidetolerance="10"
     objecttolerance="10"
     inkscape:pageopacity="0.0"
     inkscape:pageshadow="2"
     inkscape:zoom="1.5190033"
     inkscape:cx="35.766118"
     inkscape:cy="126.0238"
     inkscape:document-units="px"
     inkscape:current-layer="layer1"
     showgrid="false"
     inkscape:window-width="1280"
     inkscape:window-height="750"
     inkscape:window-x="-8"
     inkscape:window-y="-8" />
  <metadata
     id="metadata3352">
    <rdf:RDF>
      <cc:Work
         rdf:about="">
        <dc:format>image/svg+xml</dc:format>
        <dc:type
           rdf:resource="http://purl.org/dc/dcmitype/StillImage" />
      </cc:Work>
    </rdf:RDF>
  </metadata>
  <g
     inkscape:label="Layer 1"
     inkscape:groupmode="layer"
     id="layer1"
     transform="translate(-194.06664,-373.91252)">
    <path
       style="fill:#008ce4;fill-opacity:1;fill-rule:nonzero;stroke:none;stroke-width:0.5;stroke-linecap:round;stroke-linejoin:round;stroke-miterlimit:3.99840426;stroke-dashoffset:0;stroke-opacity:1"
       d="M 194.06664,373.91252 L 451.69264,373.91252 L 451.69264,681.79352 L 194.06664,681.79352 L 194.06664,373.91252 z"
       id="rect3449"
       sodipodi:nodetypes="ccccc" />
    <path
       d="M 194.15625,431.74557 L 451.7822,431.74557 L 451.7822,373.91227 L 194.15625,373.91227 L 194.15625,431.74557 z"
       style="fill:#1f4fa3;fill-opacity:1;fill-rule:nonzero;stroke:none"
       id="path3189" />
    <path
       d="M 224.26232,397.20439 C 224.30985,395.91328 223.94208,394.53569 223.15744,393.06693 C 222.68837,392.4093 222.05022,391.86387 221.23909,391.43376 C 220.40225,391.02936 219.29737,390.826 217.92289,390.826 C 215.48327,390.87898 213.72075,391.66362 212.6299,393.17913 C 211.58735,394.62373 211.01855,395.96549 210.91803,397.20439 L 224.26232,397.20439 z M 231.30769,420.57832 C 228.3803,421.42529 225.02514,421.84839 221.24221,421.84839 C 209.2724,421.68554 203.23918,415.13806 203.14101,402.19973 C 203.08802,397.35243 204.29342,393.47132 206.75408,390.5564 C 209.23656,387.69134 213.16831,386.23505 218.55169,386.18674 C 227.64398,386.4166 232.19207,390.9195 232.19207,399.69622 L 232.19207,401.57794 L 210.91803,401.57794 C 210.91803,402.82931 211.16192,404.28794 211.65436,405.95228 C 211.92474,406.76029 212.23329,407.59324 212.57769,408.44878 C 212.96962,409.23342 213.42389,410.05623 213.94048,410.91256 C 214.99784,412.52858 216.37309,413.86566 218.0686,414.91756 C 219.83812,416.07075 221.94971,416.64423 224.40803,416.64423 C 227.28555,416.54683 229.5857,416.09178 231.30769,415.28377 L 231.30769,420.57832"
       style="fill:#ffffff;fill-opacity:1;fill-rule:nonzero;stroke:none"
       id="path3191" />
    <path
       d="M 239.27017,386.9519 L 247.65963,386.9519 L 247.65963,393.26328 L 247.83417,393.26328 C 248.32427,392.42176 248.90321,391.57012 249.56785,390.70444 C 250.15613,389.8863 250.85662,389.13829 251.67008,388.45884 C 253.34143,386.99008 255.93611,386.23505 259.45179,386.18674 L 259.45179,393.93026 C 251.4114,393.83676 247.48276,397.79033 247.65963,405.79176 L 247.65963,421.08323 L 239.27017,421.08323 L 239.27017,386.9519"
       style="fill:#ffffff;fill-opacity:1;fill-rule:nonzero;stroke:none"
       id="path3193" />
    <path
       d="M 271.16836,412.29015 C 271.16836,415.19261 272.67685,416.64423 275.69541,416.64423 C 277.06521,416.64423 278.26126,416.2858 279.28511,415.56584 C 280.20766,414.91989 280.98061,414.05188 281.60474,412.95947 C 282.20237,411.8429 282.66364,410.67568 282.98935,409.46016 C 283.18726,408.19554 283.28777,406.95431 283.28777,405.73722 C 280.37051,405.73722 277.68934,406.19616 275.24505,407.11404 C 274.07393,407.61194 273.1241,408.29372 272.40181,409.16173 C 271.57977,410.03208 271.16836,411.07463 271.16836,412.29015 z M 283.28777,417.42419 L 283.13739,417.42419 C 282.61612,418.44258 281.65227,419.4189 280.24117,420.3508 C 279.47367,420.76455 278.55813,421.09959 277.49611,421.36062 C 276.4294,421.61853 275.16869,421.78138 273.71005,421.84839 C 270.61591,421.77904 268.07812,420.97103 266.10055,419.42123 C 264.07,417.80443 263.05629,415.65466 263.05629,412.97349 C 263.10382,410.17779 263.94611,407.97036 265.58162,406.352 C 267.14076,404.80454 269.05833,403.69498 271.33511,403.02255 C 273.63603,402.35323 275.87463,401.9278 278.05322,401.74079 C 280.27934,401.5569 282.0255,401.48756 283.28777,401.53275 L 283.28777,397.9937 C 283.28777,396.12366 282.97454,394.5614 282.35275,393.30847 C 281.65227,392.0797 280.25519,391.44077 278.16074,391.3909 C 275.91281,391.44077 274.40353,392.05555 273.63136,393.23445 C 272.85685,394.39232 272.4953,395.62109 272.54518,396.92232 L 264.46271,396.92232 C 264.46271,389.95097 269.02561,386.37374 278.15373,386.18674 C 286.91331,386.23505 291.26817,389.76942 291.2183,396.79298 L 291.2183,421.08323 L 283.28777,421.08323 L 283.28777,417.42419"
       style="fill:#ffffff;fill-opacity:1;fill-rule:nonzero;stroke:none"
       id="path3195" />
    <path
       d="M 319.0702,393.89442 C 318.57775,393.60534 317.62091,393.1316 316.20046,392.47631 C 314.75118,391.89504 313.04633,391.57947 311.08513,391.53194 C 309.73636,391.53194 308.50992,391.79218 307.40505,392.31112 C 306.12797,392.90174 305.49215,393.70586 305.49215,394.71957 C 305.49215,395.19332 305.74772,395.69979 306.26432,396.24288 C 306.7069,396.80934 307.3092,397.34075 308.06969,397.83553 C 309.59065,398.80405 311.37265,399.89023 313.41021,401.09485 C 315.47115,402.25271 317.28898,403.6568 318.86215,405.30867 C 320.40727,406.94028 321.20594,408.99421 321.25658,411.47201 C 321.20594,414.99002 319.95301,417.57457 317.49469,419.22722 C 315.03636,420.9757 311.76458,421.84839 307.68477,421.84839 C 305.27398,421.78138 303.30576,421.61619 301.78246,421.35361 C 300.23267,421.04739 299.02961,420.78402 298.16939,420.5643 L 298.16939,414.0737 C 298.75767,414.26928 299.43167,414.48745 300.19215,414.72899 C 300.9051,415.04456 301.6274,415.29858 302.36373,415.49181 C 303.98287,415.97724 305.62773,416.21879 307.29752,416.21879 C 308.49746,416.21879 309.79869,416.02945 311.19733,415.64921 C 312.64427,415.26975 313.40476,414.41342 313.47956,413.08336 C 313.40476,412.06497 312.6209,411.02008 311.12331,409.94871 C 309.6265,408.92953 307.84762,407.81296 305.7859,406.60056 C 304.87737,405.95929 303.94703,405.28296 302.99019,404.57001 C 302.08166,403.83368 301.24716,403.05138 300.48668,402.21921 C 298.89091,400.58137 298.06888,398.63185 298.02135,396.37456 C 298.02135,393.07394 299.19947,390.54627 301.56039,388.78609 C 303.87067,387.05475 306.9913,386.18674 310.92306,386.18674 C 312.74011,386.2296 314.35224,386.36128 315.75321,386.57867 C 317.10276,386.88489 318.20998,387.15526 319.0702,387.39447 L 319.0702,393.89442"
       style="fill:#ffffff;fill-opacity:1;fill-rule:nonzero;stroke:none"
       id="path3197" />
    <path
       d="M 326.73502,386.9519 L 335.16032,386.9519 L 335.16032,392.2106 L 335.30837,392.2106 C 335.61225,391.62778 335.99249,390.97482 336.44987,390.24784 C 336.92985,389.59255 337.5641,388.95128 338.34874,388.32014 C 339.10845,387.6407 340.03178,387.11708 341.12263,386.74386 C 342.21037,386.37374 343.51395,386.18674 345.03491,386.18674 C 347.36388,386.18674 349.35392,386.71269 351.00189,387.76536 C 352.6709,388.91076 353.78514,390.65146 354.34459,392.99057 L 354.53393,392.99057 C 355.09105,391.56544 356.23177,390.08032 357.95377,388.53754 C 359.65161,387.01657 361.98058,386.23505 364.94615,386.18674 C 367.75588,386.18674 370.13785,387.06176 372.08893,388.81259 C 373.96208,390.63276 374.92359,393.50249 374.9758,397.42178 L 374.9758,421.08323 L 366.55828,421.08323 L 366.55828,401.19069 C 366.55828,397.73969 366.31128,395.47772 365.82118,394.40634 C 365.25237,393.47833 364.19502,393.03576 362.64523,393.08407 C 361.37828,393.08407 360.26872,393.46665 359.31188,394.22713 C 358.38154,395.06163 357.59456,396.1447 356.94861,397.4771 C 355.68167,400.191 355.05053,403.03735 355.05053,406.01227 L 355.05053,421.08323 L 346.66106,421.08323 L 346.66106,401.19069 C 346.66106,397.73969 346.41484,395.47772 345.92474,394.40634 C 345.35516,393.47833 344.2978,393.03576 342.74878,393.08407 C 341.48105,393.08407 340.3715,393.46665 339.41466,394.22713 C 338.45861,395.06163 337.67163,396.1447 337.05218,397.4771 C 335.78445,400.191 335.15331,403.03735 335.15331,406.01227 L 335.15331,421.08323 L 326.73502,421.08323 L 326.73502,386.9519"
       style="fill:#ffffff;fill-opacity:1;fill-rule:nonzero;stroke:none"
       id="path3199" />
    <path
       d="M 405.09434,415.21209 L 404.94629,415.21209 C 404.7476,415.77388 404.36502,416.43151 403.79622,417.18732 C 403.30065,417.94312 402.62198,418.67711 401.75632,419.38773 C 400.89065,420.03523 399.85044,420.60715 398.64037,421.10427 C 397.37731,421.59983 395.90621,421.84839 394.22551,421.84839 C 391.50383,421.84839 389.22939,420.93908 387.39987,419.12203 C 385.46984,417.25666 384.48027,414.41342 384.43274,410.58919 L 384.43274,386.9519 L 392.82143,386.9519 L 392.82143,406.81795 C 392.82143,410.24246 393.09414,412.46703 393.64191,413.48775 C 394.16318,414.51082 395.13404,414.99937 396.55216,414.95106 C 397.96793,414.95106 399.21151,414.51082 400.28288,413.63112 C 401.35192,412.79896 402.24642,411.75407 402.96873,410.49335 C 404.3845,407.80595 405.09434,404.97674 405.09434,402.00416 L 405.09434,386.9519 L 413.4838,386.9519 L 413.4838,421.08323 L 405.09434,421.08323 L 405.09434,415.21209"
       style="fill:#ffffff;fill-opacity:1;fill-rule:nonzero;stroke:none"
       id="path3201" />
    <path
       d="M 441.70347,393.89442 C 441.21103,393.60534 440.25497,393.1316 438.83374,392.47631 C 437.38524,391.89504 435.6796,391.57947 433.7184,391.53194 C 432.36964,391.53194 431.1432,391.79218 430.03832,392.31112 C 428.76124,392.90174 428.12543,393.70586 428.12543,394.71957 C 428.12543,395.19332 428.381,395.69979 428.8976,396.24288 C 429.34018,396.80934 429.94248,397.34075 430.70297,397.83553 C 432.22393,398.80405 434.00592,399.89023 436.04349,401.09485 C 438.10442,402.25271 439.92226,403.6568 441.49621,405.30867 C 443.04055,406.94028 443.83921,408.99421 443.88986,411.47201 C 443.83921,414.99002 442.58629,417.57457 440.12797,419.22722 C 437.66964,420.9757 434.39785,421.84839 430.31805,421.84839 C 427.90726,421.78138 425.93904,421.61619 424.41574,421.35361 C 422.86595,421.04739 421.66366,420.78402 420.80267,420.5643 L 420.80267,414.0737 C 421.39095,414.26928 422.06495,414.48745 422.82543,414.72899 C 423.53838,415.04456 424.26068,415.29858 424.99701,415.49181 C 426.61615,415.97724 428.26179,416.21879 429.9308,416.21879 C 431.13152,416.21879 432.43197,416.02945 433.83139,415.64921 C 435.27833,415.26975 436.03803,414.41342 436.11284,413.08336 C 436.03803,412.06497 435.25417,411.02008 433.75659,409.94871 C 432.25978,408.92953 430.4809,407.81296 428.41918,406.60056 C 427.51065,405.95929 426.58031,405.28296 425.62347,404.57001 C 424.71494,403.83368 423.88044,403.05138 423.11996,402.21921 C 421.52497,400.58137 420.70215,398.63185 420.65462,396.37456 C 420.65462,393.07394 421.83353,390.54627 424.19367,388.78609 C 426.50395,387.05475 429.62458,386.18674 433.55634,386.18674 C 435.37416,386.2296 436.98552,386.36128 438.38649,386.57867 C 439.73604,386.88489 440.84326,387.15526 441.70347,387.39447 L 441.70347,393.89442"
       style="fill:#ffffff;fill-opacity:1;fill-rule:nonzero;stroke:none"
       id="path3203" />
    <path
       d="M 267.91137,655.8838 L 262.40879,655.7864 L 254.25074,655.62979 L 251.59684,648.47455 L 249.90056,643.90932 L 248.20584,648.47455 L 245.53714,655.62979 L 237.39467,655.7864 L 231.85624,655.8838 L 236.36303,659.09014 L 242.77493,663.64524 L 240.44907,670.80048 L 238.87512,675.67817 L 243.17543,672.87233 L 249.90056,668.4941 L 260.91275,675.67817 L 259.3388,670.80048 L 257.02697,663.64524 L 263.42484,659.09014 L 267.91137,655.8838"
       style="fill:#fcc707;fill-opacity:1;fill-rule:nonzero;stroke:none"
       id="path3223" />
    <path
       d="M 404.0775,491.28528 L 402.88457,495.01835 L 402.05942,497.54758 L 404.29412,496.09518 L 407.78797,493.81997 L 411.2756,496.09518 L 413.5173,497.54758 L 412.69215,495.01835 L 411.49065,491.28528 L 414.81543,488.92826 L 417.14908,487.27795 L 414.28713,487.22652 L 410.04838,487.13536 L 408.66923,483.41787 L 407.78797,481.03046 L 406.89971,483.41787 L 405.52055,487.13536 L 401.2818,487.22652 L 398.41207,487.27795 L 400.7613,488.92826 L 404.0775,491.28528"
       style="fill:#fcc707;fill-opacity:1;fill-rule:nonzero;stroke:none"
       id="path3225" />
    <path
       d="M 396.64955,454.40967 L 394.70004,449.16265 L 393.451,445.82853 L 392.22301,449.16265 L 390.28519,454.40967 L 384.31664,454.52421 L 380.29762,454.58888 L 383.58499,456.90851 L 388.24684,460.24263 L 386.55835,465.46783 L 385.40828,469.03026 L 388.55384,467.00282 L 393.451,463.80506 L 398.37311,467.00282 L 401.51477,469.03026 L 400.35457,465.46783 L 398.66608,460.24263 L 403.33884,456.90851 L 406.62933,454.58888 L 402.59627,454.52421 L 396.64955,454.40967"
       style="fill:#fcc707;fill-opacity:1;fill-rule:nonzero;stroke:none"
       id="path3227" />
    <path
       d="M 432.05173,466.82205 L 430.59777,462.90744 L 429.66588,460.41951 L 428.74955,462.90744 L 427.30339,466.82205 L 422.85036,466.90698 L 419.85206,466.95529 L 422.30493,468.68586 L 425.78321,471.17379 L 424.52326,475.07282 L 423.66539,477.73062 L 426.01229,476.21744 L 429.66588,473.83158 L 433.33816,476.21744 L 435.68117,477.73062 L 434.81705,475.07282 L 433.55634,471.17379 L 437.04317,468.68586 L 439.4976,466.95529 L 436.48918,466.90698 L 432.05173,466.82205"
       style="fill:#fcc707;fill-opacity:1;fill-rule:nonzero;stroke:none"
       id="path3229" />
    <path
       d="M 362.90391,444.49612 L 360.54611,438.17383 L 359.04774,434.11429 L 357.53534,438.17383 L 355.19078,444.49612 L 347.99581,444.63482 L 343.10332,444.72053 L 347.0678,447.55364 L 352.73791,451.56175 L 350.6949,457.88405 L 349.30406,462.2202 L 353.09166,459.73305 L 359.04774,455.86284 L 364.97654,459.73305 L 368.76493,462.2202 L 367.37409,457.88405 L 365.34353,451.56175 L 370.99807,447.55364 L 374.96177,444.72053 L 370.09889,444.63482 L 362.90391,444.49612"
       style="fill:#fcc707;fill-opacity:1;fill-rule:nonzero;stroke:none"
       id="path3231" />
    <path
       d="M 255.3751,440.78877 L 253.83777,436.66611 L 252.86068,434.01923 L 251.87423,436.66611 L 250.34547,440.78877 L 245.65401,440.87915 L 242.46325,440.93526 L 245.04859,442.78348 L 248.74581,445.39608 L 247.41419,449.51952 L 246.50722,452.34639 L 248.97723,450.72491 L 252.86068,448.20192 L 256.72698,450.72491 L 259.19699,452.34639 L 258.29002,449.51952 L 256.96619,445.39608 L 260.65329,442.78348 L 263.23784,440.93526 L 260.06734,440.87915 L 255.3751,440.78877"
       style="fill:#fcc707;fill-opacity:1;fill-rule:nonzero;stroke:none"
       id="path3233" />
    <path
       d="M 210.34689,585.48929 L 208.75268,581.19054 L 207.72494,578.44781 L 206.71512,581.19054 L 205.12013,585.48929 L 196.89352,585.63578 L 199.59728,587.56114 L 203.45268,590.28594 L 202.05483,594.58469 L 201.11825,597.53234 L 203.69345,595.84152 L 207.72494,593.21099 L 211.75332,595.82983 L 214.34878,597.53234 L 213.40363,594.60184 L 212.01123,590.28594 L 215.85805,587.56114 L 218.56182,585.63578 L 210.34689,585.48929"
       style="fill:#fcc707;fill-opacity:1;fill-rule:nonzero;stroke:none"
       id="path3235" />
    <path
       d="M 243.56269,496.28141 L 241.21734,489.95911 L 239.71898,485.89957 L 238.20736,489.95911 L 235.87527,496.28141 L 228.65458,496.4201 L 223.79092,496.5323 L 227.7554,499.3397 L 233.40915,503.34704 L 231.36613,509.67011 L 229.97529,514.00548 L 233.78082,511.51833 L 239.71898,507.64891 L 245.66103,511.51833 L 249.44863,514.00548 L 248.05857,509.67011 L 246.01555,503.34704 L 251.65528,499.3397 L 255.63768,496.5323 L 250.77013,496.4201 L 243.56269,496.28141"
       style="fill:#fcc707;fill-opacity:1;fill-rule:nonzero;stroke:none"
       id="path3237" />
    <path
       d="M 232.7336,562.62027 L 236.53913,565.09028 L 235.13115,560.78841 L 233.11774,554.46612 L 238.75824,550.43229 L 242.73597,547.62567 L 237.86062,547.52126 L 230.66487,547.40906 L 228.31953,541.08677 L 226.80869,537.01865 L 225.30954,541.08677 L 222.96498,547.40906 L 215.75675,547.52126 L 210.87752,547.62567 L 214.842,550.43229 L 220.51133,554.46612 L 218.45195,560.78841 L 217.06579,565.09028 L 220.86586,562.62027 L 226.80869,558.75085 L 232.7336,562.62027"
       style="fill:#fcc707;fill-opacity:1;fill-rule:nonzero;stroke:none"
       id="path3239" />
    <path
       d="M 244.29044,596.95341 L 241.94588,590.63112 L 240.43427,586.57158 L 238.9359,590.63112 L 236.57731,596.95341 L 229.38233,597.09288 L 224.50231,597.17002 L 228.48471,600.00235 L 234.13769,604.00969 L 232.08142,610.33354 L 230.69058,614.6432 L 234.47819,612.19033 L 240.43427,608.32091 L 246.35917,612.19033 L 250.16392,614.6432 L 248.76062,610.33354 L 246.73084,604.00969 L 252.38382,600.00235 L 256.3483,597.17002 L 251.48542,597.09288 L 244.29044,596.95341"
       style="fill:#fcc707;fill-opacity:1;fill-rule:nonzero;stroke:none"
       id="path3241" />
    <path
       d="M 217.6829,470.28864 L 215.33834,463.93128 L 213.82672,459.90603 L 212.32758,463.93128 L 209.98301,470.28864 L 202.77479,470.42655 L 197.89477,470.50369 L 201.85925,473.31109 L 207.53015,477.3457 L 205.46921,483.66721 L 204.08304,487.97843 L 207.87065,485.48972 L 213.82672,481.62108 L 219.75163,485.48972 L 223.55638,487.97843 L 222.15307,483.66721 L 220.13655,477.3457 L 225.77705,473.31109 L 229.74076,470.50369 L 224.87788,470.42655 L 217.6829,470.28864"
       style="fill:#fcc707;fill-opacity:1;fill-rule:nonzero;stroke:none"
       id="path3243" />
    <path
       d="M 225.91497,628.58045 L 223.58287,622.29244 L 222.07126,618.23212 L 220.55964,622.29244 L 218.22755,628.58045 L 211.01933,628.71836 L 206.1432,628.83057 L 210.10846,631.63796 L 215.76144,635.67179 L 213.73166,641.99409 L 212.34082,646.30453 L 216.12843,643.85088 L 222.07126,639.94717 L 227.98292,643.85088 L 231.8017,646.30453 L 230.41086,641.99409 L 228.36784,635.67179 L 234.03328,631.63796 L 238.00321,628.83057 L 233.12241,628.71836 L 225.91497,628.58045"
       style="fill:#fcc707;fill-opacity:1;fill-rule:nonzero;stroke:none"
       id="path3245" />
    <path
       d="M 426.52966,597.28223 L 424.78429,597.25106 L 422.19663,597.20119 L 421.35511,594.93221 L 420.81747,593.48449 L 420.27906,594.93221 L 419.43286,597.20119 L 416.85065,597.25106 L 415.09359,597.28223 L 416.5234,598.29906 L 418.55706,599.74366 L 417.81918,602.01343 L 417.31971,603.5601 L 418.68407,602.67028 L 420.81747,601.28099 L 424.30977,603.5601 L 423.81031,602.01343 L 423.0771,599.74366 L 425.10688,598.29906 L 426.52966,597.28223"
       style="fill:#fcc707;fill-opacity:1;fill-rule:nonzero;stroke:none"
       id="path3247" />
    <path
       d="M 249.25618,566.91279 L 247.89105,571.18193 L 246.94746,574.07426 L 249.50317,572.41382 L 253.49883,569.81135 L 257.48669,572.41382 L 260.05098,574.07426 L 259.10739,571.18193 L 257.73291,566.91279 L 261.53454,564.21759 L 264.20324,562.33041 L 260.93067,562.27197 L 256.08338,562.16756 L 254.50631,557.91556 L 253.49883,555.18608 L 252.48277,557.91556 L 250.90571,562.16756 L 246.05841,562.27197 L 242.77727,562.33041 L 245.46311,564.21759 L 249.25618,566.91279"
       style="fill:#fcc707;fill-opacity:1;fill-rule:nonzero;stroke:none"
       id="path3249" />
    <path
       d="M 440.22303,606.59346 L 439.35268,604.25124 L 438.79478,602.76222 L 438.24624,604.25124 L 437.38135,606.59346 L 434.71654,606.64489 L 432.92208,606.67372 L 434.39006,607.70925 L 436.47125,609.19827 L 435.717,611.53115 L 435.20353,613.12146 L 436.6084,612.21683 L 438.79478,610.78858 L 440.99208,612.21683 L 442.39461,613.12146 L 441.87801,611.53115 L 441.12376,609.19827 L 443.20963,607.70925 L 444.67917,606.67372 L 442.8777,606.64489 L 440.22303,606.59346"
       style="fill:#fcc707;fill-opacity:1;fill-rule:nonzero;stroke:none"
       id="path3251" />
    <path
       d="M 426.56706,574.22386 L 425.72009,571.94397 L 425.17778,570.49703 L 424.64482,571.94397 L 423.80252,574.22386 L 421.21018,574.27295 L 419.46481,574.301 L 420.89305,575.30849 L 422.91737,576.75621 L 422.18416,579.02597 L 421.6847,580.57265 L 423.05139,579.69217 L 425.17778,578.30366 L 427.31508,579.69217 L 428.67942,580.57265 L 428.17607,579.02597 L 427.44208,576.75621 L 429.47185,575.30849 L 430.90088,574.301 L 429.14928,574.27295 L 426.56706,574.22386"
       style="fill:#fcc707;fill-opacity:1;fill-rule:nonzero;stroke:none"
       id="path3253" />
    <path
       d="M 438.12157,579.50594 L 437.27537,577.22683 L 436.73307,575.77911 L 436.19933,577.22683 L 435.35781,579.50594 L 432.76624,579.55503 L 431.0201,579.58386 L 432.44833,580.59057 L 434.47266,582.03907 L 433.73944,584.30805 L 433.23999,585.85551 L 434.60667,584.97503 L 436.73307,583.58653 L 438.87036,584.97503 L 440.23471,585.85551 L 439.73136,584.30805 L 438.99737,582.03907 L 441.02636,580.59057 L 442.45616,579.58386 L 440.70456,579.55503 L 438.12157,579.50594"
       style="fill:#fcc707;fill-opacity:1;fill-rule:nonzero;stroke:none"
       id="path3255" />
    <path
       d="M 219.10568,522.10743 L 217.52005,517.8562 L 216.51257,515.12595 L 215.49573,517.8562 L 213.91867,522.10743 L 209.08072,522.20093 L 205.79101,522.25859 L 208.45659,524.16369 L 212.26914,526.85888 L 210.89544,531.11011 L 209.96042,534.02659 L 212.50757,532.35368 L 216.51257,529.75121 L 220.49965,532.35368 L 223.0468,534.02659 L 222.111,531.11011 L 220.74587,526.85888 L 224.54828,524.16369 L 227.21387,522.25859 L 223.94442,522.20093 L 219.10568,522.10743"
       style="fill:#fcc707;fill-opacity:1;fill-rule:nonzero;stroke:none"
       id="path3257" />
    <path
       d="M 420.57593,551.259 L 419.72895,548.99002 L 419.19132,547.53217 L 418.64901,548.99002 L 417.8067,551.259 L 415.2245,551.30887 L 413.46822,551.34004 L 414.891,552.35687 L 416.92623,553.79524 L 416.19302,556.065 L 415.69434,557.62103 L 417.05402,556.72887 L 419.19132,555.33958 L 421.32005,556.72887 L 422.67971,557.62103 L 421.45172,553.79524 L 423.48071,552.35687 L 424.9035,551.34004 L 423.15814,551.30887 L 420.57593,551.259"
       style="fill:#fcc707;fill-opacity:1;fill-rule:nonzero;stroke:none"
       id="path3259" />
    <path
       d="M 222.76317,446.30305 L 221.18611,442.05183 L 220.16927,439.33871 L 219.17036,442.05183 L 217.59329,446.30305 L 209.45629,446.44876 L 212.13044,448.35308 L 215.94376,451.04827 L 214.56149,455.30027 L 213.63427,458.2152 L 216.18219,456.54307 L 220.16927,453.94138 L 224.15324,456.53138 L 226.72064,458.2152 L 225.78562,455.31742 L 224.40881,451.04827 L 228.21356,448.35308 L 230.88849,446.44876 L 222.76317,446.30305"
       style="fill:#fcc707;fill-opacity:1;fill-rule:nonzero;stroke:none"
       id="path3261" />
    <path
       d="M 438.52441,557.21196 L 437.59562,554.71078 L 437.00344,553.10489 L 436.40503,554.71078 L 435.48248,557.21196 L 432.62521,557.2665 L 430.70218,557.31169 L 432.27068,558.42203 L 434.50693,560.00767 L 433.69814,562.50885 L 433.14882,564.22461 L 434.65421,563.2405 L 437.00344,561.7094 L 439.35423,563.2405 L 440.85261,564.22461 L 440.3025,562.50885 L 439.49449,560.00767 L 441.72607,558.42203 L 443.30158,557.31169 L 441.37544,557.2665 L 438.52441,557.21196"
       style="fill:#fcc707;fill-opacity:1;fill-rule:nonzero;stroke:none"
       id="path3263" />
    <path
       d="M 419.21314,530.23041 L 421.77197,531.89085 L 420.82526,528.99852 L 419.47182,524.7473 L 423.2641,522.03496 L 425.93904,520.14778 L 422.66102,520.07766 L 417.82229,520.0013 L 416.24522,515.75085 L 415.22917,513.01436 L 414.22091,515.75085 L 412.64384,520.0013 L 407.79732,520.07766 L 404.5154,520.14778 L 407.18177,522.03496 L 410.99431,524.7473 L 409.6097,528.99852 L 408.6778,531.89085 L 411.23274,530.23041 L 415.22917,527.62872 L 419.21314,530.23041"
       style="fill:#fcc707;fill-opacity:1;fill-rule:nonzero;stroke:none"
       id="path3265" />
    <path
       d="M 435.83466,502.97926 L 434.57083,499.5719 L 433.75581,497.38395 L 432.94857,499.5719 L 431.67695,502.97926 L 427.79973,503.05406 L 425.16998,503.09614 L 427.31585,504.62256 L 430.36247,506.78246 L 429.25446,510.1906 L 428.50489,512.51335 L 430.54635,511.19107 L 433.75581,509.10598 L 436.94968,511.19107 L 439.00048,512.51335 L 438.2439,510.1906 L 437.14915,506.78246 L 440.19653,504.62256 L 442.33383,503.09614 L 439.71188,503.05406 L 435.83466,502.97926"
       style="fill:#fcc707;fill-opacity:1;fill-rule:nonzero;stroke:none"
       id="path3267" />
    <path
       d="M 388.35749,501.67569 L 386.78041,497.40109 L 385.76437,494.69343 L 384.75688,497.40109 L 383.17982,501.67569 L 378.33252,501.76841 L 375.0506,501.81984 L 377.71618,503.7078 L 381.53029,506.42091 L 380.1449,510.67214 L 379.21222,513.57148 L 381.75937,511.89779 L 385.76437,509.2961 L 389.74833,511.89779 L 392.30639,513.57148 L 391.36358,510.67214 L 390.00702,506.42091 L 393.80008,503.7078 L 396.46645,501.81984 L 393.19543,501.76841 L 388.35749,501.67569"
       style="fill:#fcc707;fill-opacity:1;fill-rule:nonzero;stroke:none"
       id="path3269" />
    <path
       d="M 434.49681,536.94463 L 433.34829,533.84894 L 432.60495,531.84955 L 431.86005,533.84894 L 430.71232,536.94463 L 427.16236,537.0132 L 424.76248,537.06852 L 426.71433,538.45001 L 429.49757,540.43693 L 428.49866,543.55054 L 427.81376,545.67304 L 429.67834,544.46453 L 432.60495,542.54228 L 435.5152,544.46453 L 437.39537,545.67304 L 436.71124,543.55054 L 435.70532,540.43693 L 438.4948,538.45001 L 440.44899,537.06852 L 438.04599,537.0132 L 434.49681,536.94463"
       style="fill:#fcc707;fill-opacity:1;fill-rule:nonzero;stroke:none"
       id="path3271" />
    <path
       d="M 343.75939,545.37695 C 355.17754,544.60088 366.43517,540.52809 377.79721,540.36836 C 394.79432,540.12915 396.10101,558.63786 396.46566,571.84658 C 396.67605,579.43192 396.86461,603.71672 391.01527,609.06036 C 383.65433,615.78315 384.59949,616.39247 372.22762,623.7238 C 352.61169,635.34843 336.88231,633.0327 322.28042,643.42856 C 312.69024,650.25654 292.27331,639.63394 280.9962,637.15224 C 276.04604,636.06216 257.88407,634.79443 252.6838,636.80551 C 251.70515,637.18419 250.61585,637.1951 249.5772,637.35405 C 264.72608,616.66674 271.73171,598.09491 290.53184,579.76619 C 302.3271,568.26623 319.18707,556.79666 336.4787,557.86414 C 339.88295,558.07529 347.1278,560.31155 346.20447,555.88189 C 344.00483,545.34033 345.1627,549.81284 344.00483,545.34033"
       style="fill:#231f20;fill-opacity:1;fill-rule:nonzero;stroke:none"
       id="path3275" />
    <path
       d="M 291.7684,570.89597 C 295.45705,574.5106 291.85255,580.10592 295.14148,583.65509 C 302.72917,576.78737 310.61762,570.36691 319.83691,565.79778 C 325.97064,562.75585 350.8032,565.77596 348.53422,559.43653 C 342.83917,543.52639 342.8867,540.97145 351.81069,533.55674 C 355.82815,530.2195 360.04976,526.98044 361.351,521.29708 C 362.7995,514.97556 358.06753,508.14135 353.91993,503.90493 C 343.12669,492.88105 324.25799,486.70836 309.36313,485.24973 C 292.15176,483.56358 256.85009,487.37301 257.33241,511.53937 C 257.37994,513.75381 259.31855,514.81038 259.70735,516.87911 C 260.4655,520.91294 256.06468,525.89659 254.47982,529.48239 C 252.75471,533.38688 248.57283,536.83788 247.41574,540.68938 C 245.55428,546.88233 251.94514,547.09972 256.12935,546.33534 C 259.33101,545.7494 262.39242,544.73724 262.89889,548.29733 C 263.33835,551.38523 264.96606,553.42513 268.48096,553.3402 C 266.86026,554.33444 264.60842,557.01015 266.28521,558.38619 C 266.42859,558.3519 266.54157,558.715 266.72312,558.64644 C 268.38356,562.97791 267.43529,567.86261 269.50247,571.83255 C 272.1213,576.86296 279.00383,574.92591 283.42803,573.85609"
       style="fill:#ffffff;fill-opacity:1;fill-rule:nonzero;stroke:none"
       id="path3277"
       sodipodi:nodetypes="cccssssscssssscccss" />
    <path
       d="M 291.7684,570.89597 C 295.45705,574.5106 291.85255,580.10592 295.14148,583.65509 C 302.72917,576.78737 310.61762,570.36691 319.83691,565.79778 C 325.97064,562.75585 350.8032,565.77596 348.53422,559.43653 C 342.83917,543.52639 342.8867,540.97145 351.81069,533.55674 C 355.82815,530.2195 360.04976,526.98044 361.351,521.29708 C 362.7995,514.97556 358.06753,508.14135 353.91993,503.90493 C 343.12669,492.88105 324.25799,486.70836 309.36313,485.24973 C 292.15176,483.56358 256.85009,487.37301 257.33241,511.53937 C 257.37994,513.75381 259.31855,514.81038 259.70735,516.87911 C 260.4655,520.91294 256.06468,525.89659 254.47982,529.48239 C 252.75471,533.38688 248.57283,536.83788 247.41574,540.68938 C 245.55428,546.88233 251.94514,547.09972 256.12935,546.33534 C 259.33101,545.7494 262.39242,544.73724 262.89889,548.29733 C 263.33835,551.38523 264.96606,553.42513 268.48096,553.3402 C 266.86026,554.33444 264.60842,557.01015 266.28521,558.38619 C 266.42859,558.3519 266.54157,558.715 266.72312,558.64644 C 268.38356,562.97791 267.43529,567.86261 269.50247,571.83255 C 272.1213,576.86296 279.00373,574.92548 283.42803,573.85609 C 292.1462,571.74884 298.52307,567.60512 304.74173,561.48535"
       style="fill:none;stroke:#363639;stroke-width:0.30621892;stroke-linecap:butt;stroke-linejoin:miter;stroke-miterlimit:4;stroke-dasharray:none;stroke-opacity:1"
       id="path3279"
       sodipodi:nodetypes="cccssssscssssscccsss" />
    <path
       d="M 258.84013,503.60495 C 249.65356,495.69468 227.17101,485.00507 237.42428,469.25934 C 245.6283,456.66073 281.44189,451.60773 295.68847,450.34701 C 318.51775,448.32581 335.94185,449.70418 357.02264,460.16705 C 380.0849,471.61403 385.21115,484.62171 366.04168,503.79195 C 360.51806,509.31636 366.38141,521.91886 361.42814,525.45402 C 356.82707,520.5927 344.11235,519.59534 336.98439,521.02592 C 329.35074,522.55779 324.07255,531.15296 315.59737,529.88679 C 306.30873,528.49829 304.16754,518.0362 298.27068,512.56399 C 292.21643,506.94608 281.17073,503.97116 272.77659,503.10705 C 267.97137,502.61227 263.37731,502.90836 258.84013,503.60495 z"
       style="fill:#231f20;fill-opacity:1;fill-rule:nonzero;stroke:none"
       id="path3281"
       sodipodi:nodetypes="csccccssssc" />
    <path
       d="M 439.33397,623.30538 C 403.32092,644.17736 363.96049,619.94087 328.56376,639.48667 C 324.34837,641.81331 320.00911,644.7859 317.51806,644.7859 C 315.99398,644.7859 301.30015,633.06932 279.88898,631.87328 C 277.05353,631.71744 250.64078,634.85833 252.07214,637.56833 C 252.78354,638.91008 270.2536,636.61928 272.52102,636.52032 C 281.15436,636.13619 291.22999,640.80583 298.25354,645.29704 C 308.29877,651.72063 313.85201,661.67391 325.19146,666.74094 C 331.6018,669.60521 332.0545,657.79436 337.12465,654.38232 C 360.11834,638.91164 382.66165,643.66232 408.32249,638.55789 C 418.56952,636.52032 441.56088,624.19053 439.33397,623.30538"
       style="fill:#1f4fa3;fill-opacity:1;fill-rule:nonzero;stroke:none"
       id="path3283" />
    <path
       d="M 359.03449,630.29465 C 359.03449,630.29465 384.19665,624.99075 407.04774,604.82394 C 407.04774,604.82394 407.12099,604.89484 410.73562,607.34771 C 410.73562,607.34771 382.89619,630.19024 359.03449,630.29465"
       style="fill:#f57215;fill-opacity:1;fill-rule:nonzero;stroke:none"
       id="path3285" />
    <path
       d="M 351.13747,631.16967 C 351.13747,631.16967 378.90599,621.61611 401.86151,601.04958 C 401.86151,601.04958 401.94643,601.05893 405.48861,603.70659 C 405.48861,603.70659 380.48852,625.21672 351.13747,631.16967"
       style="fill:#1b6e44;fill-opacity:1;fill-rule:nonzero;stroke:none"
       id="path3287" />
    <path
       d="M 368.21015,630.29465 C 368.21015,630.29465 389.14913,628.395 412.29632,608.36299 C 412.29632,608.36299 412.5932,608.58661 415.98498,610.69197 C 415.98498,610.69197 393.80631,630.58295 368.21015,630.29465"
       style="fill:#fcc707;fill-opacity:1;fill-rule:nonzero;stroke:none"
       id="path3289" />
    <path
       d="M 387.66401,631.13617 C 387.66401,631.13617 407.26281,629.78662 424.35341,615.54316 C 424.35341,615.54316 424.40716,615.66705 429.52873,618.39341 C 429.52873,618.39341 412.46931,630.4762 387.66401,631.13617"
       style="fill:#8bc11c;fill-opacity:1;fill-rule:nonzero;stroke:none"
       id="path3291" />
    <path
       d="M 397.3664,631.39875 C 397.3664,631.39875 417.42101,629.74767 431.31151,619.2809 L 437.92444,622.50126 C 437.92444,622.50126 423.93031,632.25897 397.3664,631.39875"
       style="fill:#db1645;fill-opacity:1;fill-rule:nonzero;stroke:none"
       id="path3293" />
    <path
       d="M 378.82107,630.58295 C 378.82107,630.58295 397.33212,628.93498 417.64152,611.68153 C 417.64152,611.68153 417.81061,611.79139 422.74595,614.67749 C 422.74595,614.67749 402.25889,631.22889 378.82107,630.58295"
       style="fill:#0e87bf;fill-opacity:1;fill-rule:nonzero;stroke:none"
       id="path3295" />
    <path
       d="M 406.35271,673.5697 L 442.91276,673.5697 L 442.91276,649.29815 L 406.35271,649.29815 L 406.35271,673.5697 z"
       style="fill:#1f4fa3;fill-opacity:1;fill-rule:nonzero;stroke:none"
       id="path3297" />
    <path
       d="M 433.70906,661.04667 L 433.33037,661.03888 L 432.77248,661.02953 L 432.59015,660.53786 L 432.47327,660.22463 L 432.35639,660.53786 L 432.17328,661.02953 L 431.61539,661.03888 L 431.2367,661.04667 L 431.54604,661.26562 L 431.98394,661.57729 L 431.82576,662.06896 L 431.71669,662.40245 L 432.012,662.21077 L 432.47327,661.91 L 432.93377,662.21077 L 433.2283,662.40245 L 433.11999,662.06896 L 432.96181,661.57729 L 433.4005,661.26562 L 433.70906,661.04667"
       style="fill:#f7ed18;fill-opacity:1;fill-rule:nonzero;stroke:none"
       id="path3299" />
    <path
       d="M 433.70906,661.04667 L 433.33037,661.03888 L 432.77248,661.02953 L 432.59015,660.53786 L 432.47327,660.22463 L 432.35639,660.53786 L 432.17328,661.02953 L 431.61539,661.03888 L 431.2367,661.04667 L 431.54604,661.26562 L 431.98394,661.57729 L 431.82576,662.06896 L 431.71669,662.40245 L 432.012,662.21077 L 432.47327,661.91 L 432.93377,662.21077 L 433.2283,662.40245 L 433.11999,662.06896 L 432.96181,661.57729 L 433.4005,661.26562 L 433.70906,661.04667 z"
       style="fill:none;stroke:#f7ed18;stroke-width:0.06545137;stroke-linecap:butt;stroke-linejoin:miter;stroke-miterlimit:4;stroke-dasharray:none;stroke-opacity:1"
       id="path3301" />
    <path
       d="M 430.93672,657.70241 L 430.77855,658.1933 L 430.67102,658.52913 L 430.96477,658.33589 L 431.42527,658.03513 L 431.88654,658.33589 L 432.18108,658.52913 L 432.07355,658.1933 L 431.9146,657.70241 L 432.35406,657.3923 L 432.66261,657.17179 L 432.28471,657.16556 L 431.72448,657.15465 L 431.54292,656.66454 L 431.42527,656.34975 L 431.30839,656.66454 L 431.12762,657.15465 L 430.56816,657.16556 L 430.18948,657.17179 L 430.49804,657.3923 L 430.93672,657.70241"
       style="fill:#f7ed18;fill-opacity:1;fill-rule:nonzero;stroke:none"
       id="path3303" />
    <path
       d="M 430.93672,657.70241 L 430.77855,658.1933 L 430.67102,658.52913 L 430.96477,658.33589 L 431.42527,658.03513 L 431.88654,658.33589 L 432.18108,658.52913 L 432.07355,658.1933 L 431.9146,657.70241 L 432.35406,657.3923 L 432.66261,657.17179 L 432.28471,657.16556 L 431.72448,657.15465 L 431.54292,656.66454 L 431.42527,656.34975 L 431.30839,656.66454 L 431.12762,657.15465 L 430.56816,657.16556 L 430.18948,657.17179 L 430.49804,657.3923 L 430.93672,657.70241 z"
       style="fill:none;stroke:#f7ed18;stroke-width:0.06545137;stroke-linecap:butt;stroke-linejoin:miter;stroke-miterlimit:4;stroke-dasharray:none;stroke-opacity:1"
       id="path3305" />
    <path
       d="M 428.87968,654.3379 L 428.69735,653.8478 L 428.58047,653.53301 L 428.4636,653.8478 L 428.28282,654.3379 L 427.34468,654.3566 L 427.65324,654.57555 L 428.09192,654.88723 L 427.93297,655.37733 L 427.82544,655.71082 L 428.11997,655.5207 L 428.58047,655.21994 L 429.04174,655.5207 L 429.33628,655.71316 L 429.22797,655.37733 L 429.06901,654.88723 L 429.5077,654.57555 L 429.81626,654.3566 L 428.87968,654.3379"
       style="fill:#f7ed18;fill-opacity:1;fill-rule:nonzero;stroke:none"
       id="path3307" />
    <path
       d="M 428.87968,654.3379 L 428.69735,653.8478 L 428.58047,653.53301 L 428.4636,653.8478 L 428.28282,654.3379 L 427.34468,654.3566 L 427.65324,654.57555 L 428.09192,654.88723 L 427.93297,655.37733 L 427.82544,655.71082 L 428.11997,655.5207 L 428.58047,655.21994 L 429.04174,655.5207 L 429.33628,655.71316 L 429.22797,655.37733 L 429.06901,654.88723 L 429.5077,654.57555 L 429.81626,654.3566 L 428.87968,654.3379 z"
       style="fill:none;stroke:#f7ed18;stroke-width:0.06545137;stroke-linecap:butt;stroke-linejoin:miter;stroke-miterlimit:4;stroke-dasharray:none;stroke-opacity:1"
       id="path3309" />
    <path
       d="M 424.90195,653.30003 L 424.71884,652.8107 L 424.60274,652.49513 L 424.48508,652.8107 L 424.30353,653.30003 L 423.36618,653.31873 L 423.67551,653.53768 L 424.11342,653.85013 L 423.95446,654.33946 L 423.84694,654.67529 L 424.14147,654.48205 L 424.60274,654.18285 L 425.06402,654.48205 L 425.35777,654.67529 L 425.25024,654.33946 L 425.09129,653.85013 L 425.83775,653.31873 L 425.46062,653.31094 L 424.90195,653.30003"
       style="fill:#f7ed18;fill-opacity:1;fill-rule:nonzero;stroke:none"
       id="path3311" />
    <path
       d="M 424.90195,653.30003 L 424.71884,652.8107 L 424.60274,652.49513 L 424.48508,652.8107 L 424.30353,653.30003 L 423.36618,653.31873 L 423.67551,653.53768 L 424.11342,653.85013 L 423.95446,654.33946 L 423.84694,654.67529 L 424.14147,654.48205 L 424.60274,654.18285 L 425.06402,654.48205 L 425.35777,654.67529 L 425.25024,654.33946 L 425.09129,653.85013 L 425.83775,653.31873 L 425.46062,653.31094 L 424.90195,653.30003 z"
       style="fill:none;stroke:#f7ed18;stroke-width:0.06545137;stroke-linecap:butt;stroke-linejoin:miter;stroke-miterlimit:4;stroke-dasharray:none;stroke-opacity:1"
       id="path3313" />
    <path
       d="M 420.95851,654.3379 L 420.77618,653.84624 L 420.6593,653.53145 L 420.54242,653.84624 L 420.36009,654.3379 L 419.8022,654.34725 L 419.42351,654.35504 L 419.73129,654.57322 L 420.17075,654.88411 L 420.0118,655.37733 L 419.90349,655.71082 L 420.19802,655.51759 L 420.6593,655.21838 L 421.1198,655.51759 L 421.41354,655.71082 L 421.30601,655.37733 L 421.14784,654.88411 L 421.89586,654.35504 L 421.51717,654.34725 L 420.95851,654.3379"
       style="fill:#f7ed18;fill-opacity:1;fill-rule:nonzero;stroke:none"
       id="path3315" />
    <path
       d="M 420.95851,654.3379 L 420.77618,653.84624 L 420.6593,653.53145 L 420.54242,653.84624 L 420.36009,654.3379 L 419.8022,654.34725 L 419.42351,654.35504 L 419.73129,654.57322 L 420.17075,654.88411 L 420.0118,655.37733 L 419.90349,655.71082 L 420.19802,655.51759 L 420.6593,655.21838 L 421.1198,655.51759 L 421.41354,655.71082 L 421.30601,655.37733 L 421.14784,654.88411 L 421.89586,654.35504 L 421.51717,654.34725 L 420.95851,654.3379 z"
       style="fill:none;stroke:#f7ed18;stroke-width:0.06545137;stroke-linecap:butt;stroke-linejoin:miter;stroke-miterlimit:4;stroke-dasharray:none;stroke-opacity:1"
       id="path3317" />
    <path
       d="M 418.08799,657.12738 L 417.90567,656.63649 L 417.78879,656.32248 L 417.67191,656.63649 L 417.49036,657.12738 L 416.93091,657.13829 L 416.55378,657.14452 L 416.86233,657.36347 L 417.30102,657.67592 L 417.14207,658.16447 L 417.03375,658.50108 L 417.32829,658.30706 L 417.78879,658.00863 L 418.25006,658.30706 L 418.54538,658.50108 L 418.43628,658.16447 L 418.27812,657.67592 L 418.71757,657.36347 L 419.02535,657.14452 L 418.64667,657.13829 L 418.08799,657.12738"
       style="fill:#f7ed18;fill-opacity:1;fill-rule:nonzero;stroke:none"
       id="path3319" />
    <path
       d="M 418.08799,657.12738 L 417.90567,656.63649 L 417.78879,656.32248 L 417.67191,656.63649 L 417.49036,657.12738 L 416.93091,657.13829 L 416.55378,657.14452 L 416.86233,657.36347 L 417.30102,657.67592 L 417.14207,658.16447 L 417.03375,658.50108 L 417.32829,658.30706 L 417.78879,658.00863 L 418.25006,658.30706 L 418.54538,658.50108 L 418.43628,658.16447 L 418.27812,657.67592 L 418.71757,657.36347 L 419.02535,657.14452 L 418.64667,657.13829 L 418.08799,657.12738 z"
       style="fill:none;stroke:#f7ed18;stroke-width:0.06545137;stroke-linecap:butt;stroke-linejoin:miter;stroke-miterlimit:4;stroke-dasharray:none;stroke-opacity:1"
       id="path3321" />
    <path
       d="M 417.17791,662.20298 L 417.47165,662.39466 L 417.36335,662.06039 L 417.20518,661.5695 L 417.64385,661.25783 L 417.95319,661.03888 L 417.57451,661.03264 L 417.01506,661.02173 L 416.83272,660.53007 L 416.71663,660.21684 L 416.59976,660.53163 L 416.41821,661.02173 L 415.85875,661.03264 L 415.48007,661.03888 L 415.7894,661.25783 L 416.22808,661.5695 L 416.06835,662.06039 L 415.96083,662.39466 L 416.25536,662.20298 L 416.71663,661.90221 L 417.17791,662.20298"
       style="fill:#f7ed18;fill-opacity:1;fill-rule:nonzero;stroke:none"
       id="path3323" />
    <path
       d="M 417.17791,662.20298 L 417.47165,662.39466 L 417.36335,662.06039 L 417.20518,661.5695 L 417.64385,661.25783 L 417.95319,661.03888 L 417.57451,661.03264 L 417.01506,661.02173 L 416.83272,660.53007 L 416.71663,660.21684 L 416.59976,660.53163 L 416.41821,661.02173 L 415.85875,661.03264 L 415.48007,661.03888 L 415.7894,661.25783 L 416.22808,661.5695 L 416.06835,662.06039 L 415.96083,662.39466 L 416.25536,662.20298 L 416.71663,661.90221 L 417.17791,662.20298 z"
       style="fill:none;stroke:#f7ed18;stroke-width:0.06545137;stroke-linecap:butt;stroke-linejoin:miter;stroke-miterlimit:4;stroke-dasharray:none;stroke-opacity:1"
       id="path3325" />
    <path
       d="M 418.07163,664.86622 L 417.89086,664.3769 L 417.77398,664.06133 L 417.65789,664.3769 L 417.47478,664.86622 L 416.9161,664.87713 L 416.5382,664.8857 L 416.84597,665.10387 L 417.28466,665.41477 L 417.12648,665.90565 L 417.0174,666.23992 L 417.31193,666.04824 L 417.7732,665.74826 L 418.2337,666.04824 L 418.52823,666.23992 L 418.4207,665.90565 L 418.26175,665.41477 L 418.70043,665.10387 L 419.00976,664.8857 L 418.63108,664.87713 L 418.07163,664.86622"
       style="fill:#f7ed18;fill-opacity:1;fill-rule:nonzero;stroke:none"
       id="path3327" />
    <path
       d="M 418.07163,664.86622 L 417.89086,664.3769 L 417.77398,664.06133 L 417.65789,664.3769 L 417.47478,664.86622 L 416.9161,664.87713 L 416.5382,664.8857 L 416.84597,665.10387 L 417.28466,665.41477 L 417.12648,665.90565 L 417.0174,666.23992 L 417.31193,666.04824 L 417.7732,665.74826 L 418.2337,666.04824 L 418.52823,666.23992 L 418.4207,665.90565 L 418.26175,665.41477 L 418.70043,665.10387 L 419.00976,664.8857 L 418.63108,664.87713 L 418.07163,664.86622 z"
       style="fill:none;stroke:#f7ed18;stroke-width:0.06545137;stroke-linecap:butt;stroke-linejoin:miter;stroke-miterlimit:4;stroke-dasharray:none;stroke-opacity:1"
       id="path3329" />
    <path
       d="M 420.92344,667.6783 L 420.74111,667.18897 L 420.62501,666.8734 L 420.50736,667.18897 L 420.3258,667.6783 L 419.76636,667.6892 L 419.38923,667.697 L 419.69701,667.91595 L 420.1349,668.22762 L 419.97673,668.71773 L 419.86921,669.05355 L 420.16296,668.86032 L 420.62501,668.55955 L 421.08473,668.86032 L 421.37926,669.05355 L 421.27174,668.71773 L 421.11356,668.22762 L 421.55224,667.91595 L 421.86002,667.697 L 421.4829,667.6892 L 420.92344,667.6783"
       style="fill:#f7ed18;fill-opacity:1;fill-rule:nonzero;stroke:none"
       id="path3331" />
    <path
       d="M 420.92344,667.6783 L 420.74111,667.18897 L 420.62501,666.8734 L 420.50736,667.18897 L 420.3258,667.6783 L 419.76636,667.6892 L 419.38923,667.697 L 419.69701,667.91595 L 420.1349,668.22762 L 419.97673,668.71773 L 419.86921,669.05355 L 420.16296,668.86032 L 420.62501,668.55955 L 421.08473,668.86032 L 421.37926,669.05355 L 421.27174,668.71773 L 421.11356,668.22762 L 421.55224,667.91595 L 421.86002,667.697 L 421.4829,667.6892 L 420.92344,667.6783 z"
       style="fill:none;stroke:#f7ed18;stroke-width:0.06545137;stroke-linecap:butt;stroke-linejoin:miter;stroke-miterlimit:4;stroke-dasharray:none;stroke-opacity:1"
       id="path3333" />
    <path
       d="M 424.89805,668.71928 L 424.7165,668.22918 L 424.60041,667.91439 L 424.48353,668.22918 L 424.30198,668.71928 L 423.74174,668.73019 L 423.36384,668.73798 L 423.67162,668.95693 L 424.1103,669.26705 L 423.95212,669.75793 L 423.8446,670.0922 L 424.60041,669.59976 L 425.0609,669.90053 L 425.35543,670.0922 L 425.24713,669.75793 L 425.08895,669.26705 L 425.52841,668.95693 L 425.83697,668.73798 L 425.45828,668.73019 L 424.89805,668.71928"
       style="fill:#f7ed18;fill-opacity:1;fill-rule:nonzero;stroke:none"
       id="path3335" />
    <path
       d="M 424.89805,668.71928 L 424.7165,668.22918 L 424.60041,667.91439 L 424.48353,668.22918 L 424.30198,668.71928 L 423.74174,668.73019 L 423.36384,668.73798 L 423.67162,668.95693 L 424.1103,669.26705 L 423.95212,669.75793 L 423.8446,670.0922 L 424.60041,669.59976 L 425.0609,669.90053 L 425.35543,670.0922 L 425.24713,669.75793 L 425.08895,669.26705 L 425.52841,668.95693 L 425.83697,668.73798 L 425.45828,668.73019 L 424.89805,668.71928 z"
       style="fill:none;stroke:#f7ed18;stroke-width:0.06545137;stroke-linecap:butt;stroke-linejoin:miter;stroke-miterlimit:4;stroke-dasharray:none;stroke-opacity:1"
       id="path3337" />
    <path
       d="M 428.84461,667.69855 L 428.66151,667.20767 L 428.5454,666.89366 L 428.42697,667.20767 L 428.2462,667.69855 L 427.68753,667.70946 L 427.30884,667.71648 L 427.6174,667.9362 L 428.05608,668.2471 L 427.89791,668.73798 L 427.7896,669.07225 L 428.08491,668.88057 L 428.5454,668.58137 L 429.00591,668.88057 L 429.29965,669.07225 L 429.19213,668.73798 L 429.03474,668.2471 L 429.47342,667.9362 L 429.78041,667.71648 L 429.40251,667.70946 L 428.84461,667.69855"
       style="fill:#f7ed18;fill-opacity:1;fill-rule:nonzero;stroke:none"
       id="path3339" />
    <path
       d="M 428.84461,667.69855 L 428.66151,667.20767 L 428.5454,666.89366 L 428.42697,667.20767 L 428.2462,667.69855 L 427.68753,667.70946 L 427.30884,667.71648 L 427.6174,667.9362 L 428.05608,668.2471 L 427.89791,668.73798 L 427.7896,669.07225 L 428.08491,668.88057 L 428.5454,668.58137 L 429.00591,668.88057 L 429.29965,669.07225 L 429.19213,668.73798 L 429.03474,668.2471 L 429.47342,667.9362 L 429.78041,667.71648 L 429.40251,667.70946 L 428.84461,667.69855 z"
       style="fill:none;stroke:#f7ed18;stroke-width:0.06545137;stroke-linecap:butt;stroke-linejoin:miter;stroke-miterlimit:4;stroke-dasharray:none;stroke-opacity:1"
       id="path3341" />
    <path
       d="M 431.71045,664.90129 L 431.52812,664.40962 L 431.41202,664.09483 L 431.29437,664.40962 L 431.11204,664.90129 L 430.55414,664.91064 L 430.17546,664.91687 L 430.48401,665.13738 L 430.9227,665.44905 L 430.76452,665.93916 L 430.65544,666.27265 L 430.94997,666.08097 L 431.41125,665.78176 L 432.16627,666.27265 L 432.05874,665.93916 L 431.90057,665.44905 L 432.33925,665.13738 L 432.64702,664.91687 L 432.26913,664.91064 L 431.71045,664.90129"
       style="fill:#f7ed18;fill-opacity:1;fill-rule:nonzero;stroke:none"
       id="path3343" />
    <path
       d="M 431.71045,664.90129 L 431.52812,664.40962 L 431.41202,664.09483 L 431.29437,664.40962 L 431.11204,664.90129 L 430.55414,664.91064 L 430.17546,664.91687 L 430.48401,665.13738 L 430.9227,665.44905 L 430.76452,665.93916 L 430.65544,666.27265 L 430.94997,666.08097 L 431.41125,665.78176 L 432.16627,666.27265 L 432.05874,665.93916 L 431.90057,665.44905 L 432.33925,665.13738 L 432.64702,664.91687 L 432.26913,664.91064 L 431.71045,664.90129 z"
       style="fill:none;stroke:#f7ed18;stroke-width:0.06545137;stroke-linecap:butt;stroke-linejoin:miter;stroke-miterlimit:4;stroke-dasharray:none;stroke-opacity:1"
       id="path3345" />
  </g>
</svg>
